<svg width="136" height="150" viewBox="0 0 136 150" fill="none" xmlns="http://www.w3.org/2000/svg">
<path fill-rule="evenodd" clip-rule="evenodd" d="M59.54 51.0005H60.5406V71.0005H59.54V51.0005Z" fill="url(#paint0_linear)"/>
<path fill-rule="evenodd" clip-rule="evenodd" d="M35.0273 75.5005V74.5005H55.0381V75.5005H35.0273Z" fill="url(#paint1_linear)"/>
<path fill-rule="evenodd" clip-rule="evenodd" d="M59.54 101.5H60.5406V81.5005H59.54V101.5Z" fill="url(#paint2_linear)"/>
<path fill-rule="evenodd" clip-rule="evenodd" d="M84.5537 75.5005V74.5005H64.543V75.5005H84.5537Z" fill="url(#paint3_linear)"/>
<path fill-rule="evenodd" clip-rule="evenodd" d="M60.0408 99.9998C73.8553 99.9998 85.0542 88.8069 85.0542 74.9998C85.0542 61.1926 73.8553 49.9998 60.0408 49.9998C46.2262 49.9998 35.0273 61.1926 35.0273 74.9998C35.0273 88.8069 46.2262 99.9998 60.0408 99.9998Z" fill="url(#paint4_radial)"/>
<path fill-rule="evenodd" clip-rule="evenodd" d="M53.0381 75L60.0418 63.8438L68.2025 75L60.0418 84.6289L53.0381 75Z" fill="url(#paint5_linear)"/>
<g opacity="0.8">
<path fill-rule="evenodd" clip-rule="evenodd" d="M60.0403 0C18.619 0 -15 33.5786 -15 75C-15 116.421 18.619 150 60.0403 150C101.462 150 135.081 116.421 135.081 75C135.081 33.5786 101.462 0 60.0403 0ZM60.0406 49.9996C46.2335 49.9996 35.0271 61.1925 35.0271 74.9996C35.0271 88.8067 46.2335 99.9996 60.0406 99.9996C73.8477 99.9996 85.054 88.8067 85.054 74.9996C85.054 61.1925 73.8477 49.9996 60.0406 49.9996Z" fill="url(#paint6_radial)"/>
<path d="M60.3294 101.885C75.0247 101.885 86.939 89.9779 86.939 75.2885C86.939 60.5991 75.0247 48.6924 60.3294 48.6924C45.634 48.6924 33.7197 60.5991 33.7197 75.2885C33.7197 89.9779 45.634 101.885 60.3294 101.885Z" stroke="#EB0029" stroke-width="3"/>
<path opacity="0.5" d="M59.7516 110.538C79.5477 110.538 95.597 94.4986 95.597 74.7112C95.597 54.9238 79.5477 38.8843 59.7516 38.8843C39.9555 38.8843 23.9062 54.9238 23.9062 74.7112C23.9062 94.4986 39.9555 110.538 59.7516 110.538Z" stroke="#EB0029" stroke-width="3"/>
<path opacity="0.2" d="M60.0396 120.346C85.0959 120.346 105.409 100.044 105.409 74.9997C105.409 49.955 85.0959 29.6536 60.0396 29.6536C34.9834 29.6536 14.6699 49.955 14.6699 74.9997C14.6699 100.044 34.9834 120.346 60.0396 120.346Z" stroke="#EB0029" stroke-width="3"/>
<path opacity="0.05" d="M60.04 129.577C90.197 129.577 114.645 105.143 114.645 75C114.645 44.8573 90.197 20.4231 60.04 20.4231C29.883 20.4231 5.43457 44.8573 5.43457 75C5.43457 105.143 29.883 129.577 60.04 129.577Z" stroke="#EB0029" stroke-width="3"/>
</g>
<defs>
<linearGradient id="paint0_linear" x1="60.9307" y1="66.5969" x2="60.9307" y2="51.0005" gradientUnits="userSpaceOnUse">
<stop stop-color="white" stop-opacity="0.5"/>
<stop offset="1" stop-color="white" stop-opacity="0.01"/>
</linearGradient>
<linearGradient id="paint1_linear" x1="50.6321" y1="74.1106" x2="35.0273" y2="74.1106" gradientUnits="userSpaceOnUse">
<stop stop-color="white" stop-opacity="0.5"/>
<stop offset="1" stop-color="white" stop-opacity="0.01"/>
</linearGradient>
<linearGradient id="paint2_linear" x1="60.9307" y1="85.9041" x2="60.9307" y2="101.5" gradientUnits="userSpaceOnUse">
<stop stop-color="white" stop-opacity="0.5"/>
<stop offset="1" stop-color="white" stop-opacity="0.01"/>
</linearGradient>
<linearGradient id="paint3_linear" x1="68.9489" y1="74.1106" x2="84.5537" y2="74.1106" gradientUnits="userSpaceOnUse">
<stop stop-color="white" stop-opacity="0.5"/>
<stop offset="1" stop-color="white" stop-opacity="0.01"/>
</linearGradient>
<radialGradient id="paint4_radial" cx="0" cy="0" r="1" gradientUnits="userSpaceOnUse" gradientTransform="translate(60.0408 75.2876) rotate(90) scale(24.7121 24.7254)">
<stop stop-color="#EB0029" stop-opacity="0.75"/>
<stop offset="1" stop-color="#EB0029" stop-opacity="0.01"/>
</radialGradient>
<linearGradient id="paint5_linear" x1="68.2025" y1="84.6289" x2="68.2025" y2="63.8438" gradientUnits="userSpaceOnUse">
<stop stop-color="#EB0029"/>
<stop offset="1" stop-color="#FF0055"/>
</linearGradient>
<radialGradient id="paint6_radial" cx="0" cy="0" r="1" gradientUnits="userSpaceOnUse" gradientTransform="translate(60.0403 75) rotate(90) scale(68.8646 68.9016)">
<stop stop-color="#EB0029"/>
<stop offset="1" stop-color="#EB0029" stop-opacity="0.01"/>
</radialGradient>
</defs>
</svg>
