<svg width="130" height="196" viewBox="0 0 130 196" fill="none" xmlns="http://www.w3.org/2000/svg">
<path fill-rule="evenodd" clip-rule="evenodd" d="M31.3477 66.6045H32.6543V92.7238H31.3477V66.6045Z" fill="url(#paint0_linear)"/>
<path fill-rule="evenodd" clip-rule="evenodd" d="M-0.666016 98.6006L-0.666016 97.2946H25.4673V98.6006H-0.666016Z" fill="url(#paint1_linear)"/>
<path fill-rule="evenodd" clip-rule="evenodd" d="M31.3477 132.556H32.6543V106.437H31.3477V132.556Z" fill="url(#paint2_linear)"/>
<path fill-rule="evenodd" clip-rule="evenodd" d="M64.0127 98.6006V97.2946H37.8794V98.6006H64.0127Z" fill="url(#paint3_linear)"/>
<path fill-rule="evenodd" clip-rule="evenodd" d="M32.0007 130.596C50.042 130.596 64.6673 115.979 64.6673 97.947C64.6673 79.9154 50.042 65.2979 32.0007 65.2979C13.9594 65.2979 -0.666016 79.9154 -0.666016 97.947C-0.666016 115.979 13.9594 130.596 32.0007 130.596Z" fill="url(#paint4_radial)"/>
<path fill-rule="evenodd" clip-rule="evenodd" d="M22.8535 97.9474L32.0002 83.3777L42.6577 97.9474L32.0002 110.522L22.8535 97.9474Z" fill="url(#paint5_linear)"/>
<g opacity="0.8">
<path fill-rule="evenodd" clip-rule="evenodd" d="M32 0C-22.0948 0 -66 43.8525 -66 97.9473C-66 152.042 -22.0948 195.895 32 195.895C86.0948 195.895 130 152.042 130 97.9473C130 43.8525 86.0948 0 32 0ZM31.9996 65.2978C13.968 65.2978 -0.667053 79.9153 -0.667053 97.9469C-0.667053 115.979 13.968 130.596 31.9996 130.596C50.0312 130.596 64.6663 115.979 64.6663 97.9469C64.6663 79.9153 50.0312 65.2978 31.9996 65.2978Z" fill="url(#paint6_radial)"/>
<path d="M32.3763 132.598C51.3146 132.598 66.6686 117.254 66.6686 98.3238C66.6686 79.3936 51.3146 64.0491 32.3763 64.0491C13.4379 64.0491 -1.91602 79.3936 -1.91602 98.3238C-1.91602 117.254 13.4379 132.598 32.3763 132.598Z" stroke="#EB0029" stroke-width="3"/>
<path opacity="0.5" d="M31.6234 143.9C57.2231 143.9 77.9772 123.159 77.9772 97.5707C77.9772 71.9827 57.2231 51.241 31.6234 51.241C6.02361 51.241 -14.7305 71.9827 -14.7305 97.5707C-14.7305 123.159 6.02361 143.9 31.6234 143.9Z" stroke="#EB0029" stroke-width="3"/>
<path opacity="0.2" d="M31.9993 156.708C64.4687 156.708 90.7916 130.401 90.7916 97.9468C90.7916 65.493 64.4687 39.1853 31.9993 39.1853C-0.469997 39.1853 -26.793 65.493 -26.793 97.9468C-26.793 130.401 -0.469997 156.708 31.9993 156.708Z" stroke="#EB0029" stroke-width="3"/>
<path opacity="0.05" d="M31.9994 168.765C71.1301 168.765 102.853 137.06 102.853 97.9479C102.853 58.8363 71.1301 27.1313 31.9994 27.1313C-7.13139 27.1313 -38.8545 58.8363 -38.8545 97.9479C-38.8545 137.06 -7.13139 168.765 31.9994 168.765Z" stroke="#EB0029" stroke-width="3"/>
</g>
<defs>
<linearGradient id="paint0_linear" x1="33.1638" y1="86.9728" x2="33.1638" y2="66.6045" gradientUnits="userSpaceOnUse">
<stop stop-color="white" stop-opacity="0.5"/>
<stop offset="1" stop-color="white" stop-opacity="0.01"/>
</linearGradient>
<linearGradient id="paint1_linear" x1="19.7133" y1="96.7854" x2="-0.666016" y2="96.7854" gradientUnits="userSpaceOnUse">
<stop stop-color="white" stop-opacity="0.5"/>
<stop offset="1" stop-color="white" stop-opacity="0.01"/>
</linearGradient>
<linearGradient id="paint2_linear" x1="33.1638" y1="112.188" x2="33.1638" y2="132.556" gradientUnits="userSpaceOnUse">
<stop stop-color="white" stop-opacity="0.5"/>
<stop offset="1" stop-color="white" stop-opacity="0.01"/>
</linearGradient>
<linearGradient id="paint3_linear" x1="43.6334" y1="96.7854" x2="64.0127" y2="96.7854" gradientUnits="userSpaceOnUse">
<stop stop-color="white" stop-opacity="0.5"/>
<stop offset="1" stop-color="white" stop-opacity="0.01"/>
</linearGradient>
<radialGradient id="paint4_radial" cx="0" cy="0" r="1" gradientUnits="userSpaceOnUse" gradientTransform="translate(32.0006 98.3229) rotate(90) scale(32.2731 32.2905)">
<stop stop-color="#EB0029" stop-opacity="0.75"/>
<stop offset="1" stop-color="#EB0029" stop-opacity="0.01"/>
</radialGradient>
<linearGradient id="paint5_linear" x1="42.6577" y1="110.522" x2="42.6577" y2="83.3777" gradientUnits="userSpaceOnUse">
<stop stop-color="#EB0029"/>
<stop offset="1" stop-color="#FF0055"/>
</linearGradient>
<radialGradient id="paint6_radial" cx="0" cy="0" r="1" gradientUnits="userSpaceOnUse" gradientTransform="translate(32 97.9473) rotate(90) scale(89.9347 89.9831)">
<stop stop-color="#EB0029"/>
<stop offset="1" stop-color="#EB0029" stop-opacity="0.01"/>
</radialGradient>
</defs>
</svg>
