<svg width="180" height="194" viewBox="0 0 180 194" fill="none" xmlns="http://www.w3.org/2000/svg">
<style type="text/css">
	  <![CDATA[

	  @keyframes pulse {
0% {
  opacity: 0.5;
}
50% {
    opacity: 1;
}
100% {
    opacity: 0.5;
}
}

    #small {
   animation-name: pulse;
  animation-duration: 1s;
  animation-iteration-count: infinite;
}

#big {
   animation-name: pulse;
  animation-duration: 1.5s;
  animation-iteration-count: infinite;
    ]]>
}
</style>
<path fill-rule="evenodd" clip-rule="evenodd" d="M95.9229 69.0759H98.0784V91.6971H95.9229V69.0759Z" fill="url(#paint0_linear)"/>
<path fill-rule="evenodd" clip-rule="evenodd" d="M69.7871 98.0256V95.8712H92.4204V98.0256H69.7871Z" fill="url(#paint1_linear)"/>
<path fill-rule="evenodd" clip-rule="evenodd" d="M95.9229 123.879H98.0784V101.257H95.9229V123.879Z" fill="url(#paint2_linear)"/>
<path fill-rule="evenodd" clip-rule="evenodd" d="M125.023 98.0256V95.8712H102.39V98.0256H125.023Z" fill="url(#paint3_linear)"/>
<path opacity="0.99" fill-rule="evenodd" clip-rule="evenodd" d="M96.9994 129.264C114.857 129.264 129.333 114.796 129.333 96.9483C129.333 79.1007 114.857 64.6323 96.9994 64.6323C79.1421 64.6323 64.666 79.1007 64.666 96.9483C64.666 114.796 79.1421 129.264 96.9994 129.264Z" fill="url(#paint4_radial)"/>
<path fill-rule="evenodd" clip-rule="evenodd" d="M84.0371 96.9485L96.9999 84.426L107.374 96.9485L96.9999 116.982L84.0371 96.9485Z" fill="url(#paint5_linear)"/>
<g opacity="0.8">
<path id="big" fill-rule="evenodd" clip-rule="evenodd" d="M97 0C43.4571 0 0 43.405 0 96.9479C0 150.491 43.4571 193.896 97 193.896C150.543 193.896 194 150.491 194 96.9479C194 43.405 150.543 0 97 0ZM96.9996 64.6323C79.152 64.6323 64.6663 79.1007 64.6663 96.9483C64.6663 114.796 79.152 129.264 96.9996 129.264C114.847 129.264 129.333 114.796 129.333 96.9483C129.333 79.1007 114.847 64.6323 96.9996 64.6323Z" fill="url(#paint6_radial)"/>
<path d="M96.9994 130.264C115.408 130.264 130.333 115.349 130.333 96.9483C130.333 78.5479 115.408 63.6323 96.9994 63.6323C78.5904 63.6323 63.666 78.5479 63.666 96.9483C63.666 115.349 78.5904 130.264 96.9994 130.264Z" stroke="#EB0029" stroke-width="2"/>
<path opacity="0.5" d="M97.001 146.422C124.339 146.422 146.501 124.273 146.501 96.9483C146.501 69.6241 124.339 47.4744 97.001 47.4744C69.6634 47.4744 47.501 69.6241 47.501 96.9483C47.501 124.273 69.6634 146.422 97.001 146.422Z" stroke="#EB0029" stroke-width="2"/>
<path opacity="0.2" d="M98.617 163.657C134.586 163.657 163.745 134.514 163.745 98.5638C163.745 62.6132 134.586 33.4705 98.617 33.4705C62.6485 33.4705 33.4893 62.6132 33.4893 98.5638C33.4893 134.514 62.6485 163.657 98.617 163.657Z" stroke="#EB0029" stroke-width="2"/>
<path opacity="0.05" d="M98.6168 176.583C141.728 176.583 176.678 141.653 176.678 98.5637C176.678 55.4741 141.728 20.5439 98.6168 20.5439C55.5053 20.5439 20.5557 55.4741 20.5557 98.5637C20.5557 141.653 55.5053 176.583 98.6168 176.583Z" stroke="#EB0029" stroke-width="2"/>
</g>
<defs>
<linearGradient id="paint0_linear" x1="98.9189" y1="86.7164" x2="98.9189" y2="69.0759" gradientUnits="userSpaceOnUse">
<stop stop-color="white" stop-opacity="0.5"/>
<stop offset="1" stop-color="white" stop-opacity="0.01"/>
</linearGradient>
<linearGradient id="paint1_linear" x1="87.437" y1="95.0312" x2="69.7871" y2="95.0312" gradientUnits="userSpaceOnUse">
<stop stop-color="white" stop-opacity="0.5"/>
<stop offset="1" stop-color="white" stop-opacity="0.01"/>
</linearGradient>
<linearGradient id="paint2_linear" x1="98.9189" y1="106.238" x2="98.9189" y2="123.879" gradientUnits="userSpaceOnUse">
<stop stop-color="white" stop-opacity="0.5"/>
<stop offset="1" stop-color="white" stop-opacity="0.01"/>
</linearGradient>
<linearGradient id="paint3_linear" x1="107.374" y1="95.0312" x2="125.023" y2="95.0312" gradientUnits="userSpaceOnUse">
<stop stop-color="white" stop-opacity="0.5"/>
<stop offset="1" stop-color="white" stop-opacity="0.01"/>
</linearGradient>
<radialGradient id="paint4_radial" cx="0" cy="0" r="1" gradientUnits="userSpaceOnUse" gradientTransform="translate(96.9994 97.3204) rotate(90) scale(31.9438 31.961)">
<stop stop-color="#EB0029" stop-opacity="0.75"/>
<stop offset="1" stop-color="#EB0029" stop-opacity="0.01"/>
</radialGradient>
<linearGradient id="paint5_linear" x1="107.374" y1="116.982" x2="107.374" y2="84.426" gradientUnits="userSpaceOnUse">
<stop stop-color="#EB0029"/>
<stop offset="1" stop-color="#FF0055"/>
</linearGradient>
<radialGradient id="paint6_radial" cx="0" cy="0" r="1" gradientUnits="userSpaceOnUse" gradientTransform="translate(97 96.9479) rotate(90) scale(89.017 89.0649)">
<stop stop-color="#EB0029"/>
<stop offset="1" stop-color="#EB0029" stop-opacity="0.01"/>
</radialGradient>
</defs>
</svg>
