<svg width="250" height="316" viewBox="0 0 250 316" fill="none" xmlns="http://www.w3.org/2000/svg">
<path fill-rule="evenodd" clip-rule="evenodd" d="M157.392 116.006H158.607V150.019H157.392V116.006Z" fill="url(#paint0_linear)"/>
<path fill-rule="evenodd" clip-rule="evenodd" d="M116.069 158.522V157.307H150.1V158.522H116.069Z" fill="url(#paint1_linear)"/>
<path fill-rule="evenodd" clip-rule="evenodd" d="M157.392 199.823H158.607V165.811H157.392V199.823Z" fill="url(#paint2_linear)"/>
<path fill-rule="evenodd" clip-rule="evenodd" d="M199.932 158.522V157.307H165.901V158.522H199.932Z" fill="url(#paint3_linear)"/>
<path fill-rule="evenodd" clip-rule="evenodd" d="M128.886 157.915L158 140.814L174.345 157.915L158 173.768L128.886 157.915Z" fill="url(#paint4_linear)"/>
<path fill-rule="evenodd" clip-rule="evenodd" d="M158 206.504C184.85 206.504 206.616 184.75 206.616 157.915C206.616 131.08 184.85 109.326 158 109.326C131.151 109.326 109.385 131.08 109.385 157.915C109.385 184.75 131.151 206.504 158 206.504Z" fill="url(#paint5_radial)"/>
<path fill-rule="evenodd" clip-rule="evenodd" d="M158 0C70.7859 0 0 70.701 0 157.915C0 245.129 70.7859 315.83 158 315.83C245.214 315.83 316 245.129 316 157.915C316 70.701 245.214 0 158 0ZM158 109.326C131.165 109.326 109.385 131.08 109.385 157.915C109.385 184.751 131.165 206.505 158 206.505C184.835 206.505 206.616 184.751 206.616 157.915C206.616 131.08 184.835 109.326 158 109.326Z" fill="url(#paint6_radial)"/>
<path d="M158 209.005C186.229 209.005 209.116 186.133 209.116 157.915C209.116 129.698 186.229 106.826 158 106.826C129.771 106.826 106.885 129.698 106.885 157.915C106.885 186.133 129.771 209.005 158 209.005Z" stroke="#EB0029" stroke-width="5"/>
<path opacity="0.5" d="M158.001 226.725C196.023 226.725 226.848 195.919 226.848 157.915C226.848 119.911 196.023 89.105 158.001 89.105C119.98 89.105 89.1553 119.911 89.1553 157.915C89.1553 195.919 119.98 226.725 158.001 226.725Z" stroke="#EB0029" stroke-width="4"/>
<path opacity="0.2" d="M158.001 244.446C205.815 244.446 244.578 205.706 244.578 157.915C244.578 110.125 205.815 71.384 158.001 71.384C110.186 71.384 71.4238 110.125 71.4238 157.915C71.4238 205.706 110.186 244.446 158.001 244.446Z" stroke="#EB0029" stroke-width="3"/>
<path opacity="0.05" d="M157.999 262.667C215.882 262.667 262.807 215.769 262.807 157.915C262.807 100.061 215.882 53.1628 157.999 53.1628C100.116 53.1628 53.1914 100.061 53.1914 157.915C53.1914 215.769 100.116 262.667 157.999 262.667Z" stroke="#EB0029" stroke-width="3"/>
<defs>
<linearGradient id="paint0_linear" x1="159.081" y1="142.53" x2="159.081" y2="116.006" gradientUnits="userSpaceOnUse">
<stop stop-color="white" stop-opacity="0.5"/>
<stop offset="1" stop-color="white" stop-opacity="0.01"/>
</linearGradient>
<linearGradient id="paint1_linear" x1="142.607" y1="156.834" x2="116.069" y2="156.834" gradientUnits="userSpaceOnUse">
<stop stop-color="white" stop-opacity="0.5"/>
<stop offset="1" stop-color="white" stop-opacity="0.01"/>
</linearGradient>
<linearGradient id="paint2_linear" x1="159.081" y1="173.299" x2="159.081" y2="199.823" gradientUnits="userSpaceOnUse">
<stop stop-color="white" stop-opacity="0.5"/>
<stop offset="1" stop-color="white" stop-opacity="0.01"/>
</linearGradient>
<linearGradient id="paint3_linear" x1="173.394" y1="156.834" x2="199.932" y2="156.834" gradientUnits="userSpaceOnUse">
<stop stop-color="white" stop-opacity="0.5"/>
<stop offset="1" stop-color="white" stop-opacity="0.01"/>
</linearGradient>
<linearGradient id="paint4_linear" x1="174.345" y1="173.768" x2="174.345" y2="140.814" gradientUnits="userSpaceOnUse">
<stop stop-color="#EB0029"/>
<stop offset="1" stop-color="#FF0055"/>
</linearGradient>
<radialGradient id="paint5_radial" cx="0" cy="0" r="1" gradientUnits="userSpaceOnUse" gradientTransform="translate(158 158.474) rotate(90) scale(48.0297 48.0556)">
<stop stop-color="#EB0029" stop-opacity="0.75"/>
<stop offset="1" stop-color="#EB0029" stop-opacity="0.01"/>
</radialGradient>
<radialGradient id="paint6_radial" cx="0" cy="0" r="1" gradientUnits="userSpaceOnUse" gradientTransform="translate(158 157.915) rotate(90) scale(144.997 145.075)">
<stop stop-color="#EB0029"/>
<stop offset="0.831941" stop-color="#EB0029" stop-opacity="0.1"/>
<stop offset="1" stop-color="#EB0029" stop-opacity="0.01"/>
</radialGradient>
</defs>
</svg>
