<svg width="65" height="130" viewBox="0 0 65 130" fill="none" xmlns="http://www.w3.org/2000/svg">
<path fill-rule="evenodd" clip-rule="evenodd" d="M64.0928 46.1521H65.533V61.2664H64.0928V46.1521Z" fill="url(#paint0_linear)"/>
<path fill-rule="evenodd" clip-rule="evenodd" d="M46.6289 65.4949V64.0554H61.7514V65.4949H46.6289Z" fill="url(#paint1_linear)"/>
<path fill-rule="evenodd" clip-rule="evenodd" d="M64.0928 82.7686H65.533V67.6542H64.0928V82.7686Z" fill="url(#paint2_linear)"/>
<path opacity="0.99" fill-rule="evenodd" clip-rule="evenodd" d="M64.8106 86.3674C76.7418 86.3674 86.4141 76.7004 86.4141 64.7755C86.4141 52.8506 76.7418 43.1836 64.8106 43.1836C52.8793 43.1836 43.207 52.8506 43.207 64.7755C43.207 76.7004 52.8793 86.3674 64.8106 86.3674Z" fill="url(#paint3_radial)"/>
<path fill-rule="evenodd" clip-rule="evenodd" d="M56.1494 64.7753L64.8105 56.4084L71.7416 64.7753L64.8105 78.1606L56.1494 64.7753Z" fill="url(#paint4_linear)"/>
<g opacity="0.8">
<path fill-rule="evenodd" clip-rule="evenodd" d="M64.8106 -0.000488281C29.0359 -0.000488281 0 29.0006 0 64.7752C0 100.55 29.0359 129.551 64.8106 129.551C100.585 129.551 129.621 100.55 129.621 64.7752C129.621 29.0006 100.585 -0.000488281 64.8106 -0.000488281ZM64.8107 43.1835C52.8858 43.1835 43.2072 52.8506 43.2072 64.7755C43.2072 76.7003 52.8858 86.3674 64.8107 86.3674C76.7356 86.3674 86.4142 76.7003 86.4142 64.7755C86.4142 52.8506 76.7356 43.1835 64.8107 43.1835Z" fill="url(#paint5_radial)"/>
<path d="M64.8106 87.3674C77.2936 87.3674 87.4141 77.2532 87.4141 64.7755C87.4141 52.2978 77.2936 42.1836 64.8106 42.1836C52.3275 42.1836 42.207 52.2978 42.207 64.7755C42.207 77.2532 52.3275 87.3674 64.8106 87.3674Z" stroke="#EB0029" stroke-width="2"/>
<path opacity="0.5" d="M64.8106 98.1632C83.2593 98.1632 98.2158 83.2154 98.2158 64.7753C98.2158 46.3352 83.2593 31.3875 64.8106 31.3875C46.3618 31.3875 31.4053 46.3352 31.4053 64.7753C31.4053 83.2154 46.3618 98.1632 64.8106 98.1632Z" stroke="#EB0029" stroke-width="2"/>
<path opacity="0.2" d="M65.8899 109.679C90.1055 109.679 109.737 90.0588 109.737 65.855C109.737 41.6512 90.1055 22.031 65.8899 22.031C41.6744 22.031 22.043 41.6512 22.043 65.855C22.043 90.0588 41.6744 109.679 65.8899 109.679Z" stroke="#EB0029" stroke-width="2"/>
<path opacity="0.05" d="M65.8907 118.316C94.8788 118.316 118.379 94.8288 118.379 65.855C118.379 36.8812 94.8788 13.3943 65.8907 13.3943C36.9027 13.3943 13.4023 36.8812 13.4023 65.855C13.4023 94.8288 36.9027 118.316 65.8907 118.316Z" stroke="#EB0029" stroke-width="2"/>
</g>
<defs>
<linearGradient id="paint0_linear" x1="66.0946" y1="57.9386" x2="66.0946" y2="46.1521" gradientUnits="userSpaceOnUse">
<stop stop-color="white" stop-opacity="0.5"/>
<stop offset="1" stop-color="white" stop-opacity="0.01"/>
</linearGradient>
<linearGradient id="paint1_linear" x1="58.4217" y1="63.4942" x2="46.6289" y2="63.4942" gradientUnits="userSpaceOnUse">
<stop stop-color="white" stop-opacity="0.5"/>
<stop offset="1" stop-color="white" stop-opacity="0.01"/>
</linearGradient>
<linearGradient id="paint2_linear" x1="66.0946" y1="70.9821" x2="66.0946" y2="82.7686" gradientUnits="userSpaceOnUse">
<stop stop-color="white" stop-opacity="0.5"/>
<stop offset="1" stop-color="white" stop-opacity="0.01"/>
</linearGradient>
<radialGradient id="paint3_radial" cx="0" cy="0" r="1" gradientUnits="userSpaceOnUse" gradientTransform="translate(64.8105 65.0241) rotate(90) scale(21.3433 21.3547)">
<stop stop-color="#EB0029" stop-opacity="0.75"/>
<stop offset="1" stop-color="#EB0029" stop-opacity="0.01"/>
</radialGradient>
<linearGradient id="paint4_linear" x1="71.7416" y1="78.1606" x2="71.7416" y2="56.4084" gradientUnits="userSpaceOnUse">
<stop stop-color="#EB0029"/>
<stop offset="1" stop-color="#FF0055"/>
</linearGradient>
<radialGradient id="paint5_radial" cx="0" cy="0" r="1" gradientUnits="userSpaceOnUse" gradientTransform="translate(64.8106 64.7752) rotate(90) scale(59.4767 59.5087)">
<stop stop-color="#EB0029"/>
<stop offset="1" stop-color="#EB0029" stop-opacity="0.01"/>
</radialGradient>
</defs>
</svg>
