<svg width="37" height="40" viewBox="0 0 37 40" fill="none" xmlns="http://www.w3.org/2000/svg">
<g clip-path="url(#clip0)">
<path d="M36.7455 10.8525V10.7787C36.7084 10.6904 36.657 10.6099 36.5939 10.541L27.0178 0.204918C26.9519 0.135861 26.8747 0.0803279 26.7904 0.0409836H26.7221C26.656 0.0172131 26.5871 0.00338115 26.5174 0H7.0242C6.25207 0.017418 5.63006 0.689857 5.61395 1.52459V9.80328H1.7244C0.886878 9.80328 0.208008 10.5372 0.208008 11.4426V20.1885C0.208008 21.094 0.886878 21.8279 1.7244 21.8279H5.61395V38.4426C5.61395 39.3028 6.25889 40 7.05452 40H35.3504C36.1461 40 36.791 39.3028 36.791 38.4426V11.1148C36.791 11.1148 36.791 11.1148 36.791 11.0656C36.7847 10.9926 36.7694 10.921 36.7455 10.8525ZM27.2377 2.77049L34.2055 10.2951H27.2377V2.77049ZM1.7244 20.1885V11.4426H17.7451V20.1885H1.7244ZM35.2746 38.3607H7.13034V21.8279H17.7451C18.5826 21.8279 19.2615 21.094 19.2615 20.1885V11.4426C19.2615 10.5372 18.5826 9.80328 17.7451 9.80328H7.13034V1.60656H25.7213V10.377C25.7255 11.2353 26.368 11.9299 27.1619 11.9344H35.2746V38.3607Z" fill="black" fill-opacity="0.2"/>
<path d="M7.17745 14.3755C7.12011 13.5268 6.43707 12.889 5.65196 12.9509H4.46159C4.26057 12.9509 4.09766 13.1271 4.09766 13.3444V17.5821C4.09766 17.8084 4.2674 17.9919 4.47675 17.9919C4.68611 17.9919 4.85585 17.8084 4.85585 17.5821V16.0247H5.65196C5.72114 16.0301 5.79061 16.0301 5.85971 16.0247C6.64491 15.9627 7.23488 15.2243 7.17745 14.3755ZM5.67471 15.2296H4.85585V13.746H5.67471C6.05371 13.746 6.36087 14.0781 6.36087 14.4878C6.36087 14.8976 6.05371 15.2296 5.67471 15.2296Z" fill="black" fill-opacity="0.2"/>
<path d="M9.11734 12.9507H8.35915C8.15813 12.9507 7.99521 13.1268 7.99521 13.3441V17.5818C7.99512 17.5846 7.99512 17.5874 7.99512 17.5901C7.99512 17.8074 8.15813 17.9836 8.35915 17.9835H9.11734C10.402 17.9829 11.4434 16.8571 11.444 15.4682C11.4445 14.0784 10.4029 12.9513 9.11734 12.9507ZM9.16283 17.1802H8.75341V13.7458H9.16283C9.95562 13.805 10.5866 14.4872 10.6414 15.3442C10.7021 16.2927 10.0401 17.1146 9.16283 17.1802Z" fill="black" fill-opacity="0.2"/>
<path d="M15.3117 13.7704C15.5211 13.7704 15.6908 13.5869 15.6908 13.3605C15.6908 13.1342 15.5211 12.9507 15.3117 12.9507H13.1357C12.9347 12.9507 12.7718 13.1268 12.7718 13.3441V17.5818C12.7706 17.596 12.7703 17.6101 12.7707 17.6244C12.7756 17.8416 12.9424 18.0134 13.1433 18.0081C13.3456 18.0081 13.5107 17.8333 13.5148 17.6146V15.8851H15.0312C15.2406 15.8851 15.4103 15.7016 15.4103 15.4753C15.4103 15.2489 15.2406 15.0654 15.0312 15.0654H13.5148V13.7704H15.3117Z" fill="black" fill-opacity="0.2"/>
</g>
<defs>
<clipPath id="clip0">
<rect width="37" height="40" fill="white"/>
</clipPath>
</defs>
</svg>
