<svg width="104" height="104" viewBox="0 0 104 104" fill="none" xmlns="http://www.w3.org/2000/svg">
<g opacity="0.4">
<path fill-rule="evenodd" clip-rule="evenodd" d="M51.4785 65.7012H51.876V54.5707H51.4785V65.7012Z" fill="url(#paint0_linear)"/>
<path fill-rule="evenodd" clip-rule="evenodd" d="M37.9629 51.7881V52.1856H49.0934V51.7881H37.9629Z" fill="url(#paint1_linear)"/>
<path fill-rule="evenodd" clip-rule="evenodd" d="M51.4785 38.2725H51.876V49.4029H51.4785V38.2725Z" fill="url(#paint2_linear)"/>
<path fill-rule="evenodd" clip-rule="evenodd" d="M65.3916 51.7881V52.1856H54.2611V51.7881H65.3916Z" fill="url(#paint3_linear)"/>
<path fill-rule="evenodd" clip-rule="evenodd" d="M42.1533 51.9857L51.6759 57.582L57.0218 51.9857L51.6759 46.7978L42.1533 51.9857Z" fill="url(#paint4_linear)"/>
<path fill-rule="evenodd" clip-rule="evenodd" d="M51.677 36.0854C60.4587 36.0854 67.5777 43.2044 67.5777 51.9861C67.5777 60.7677 60.4587 67.8867 51.677 67.8867C42.8953 67.8867 35.7764 60.7677 35.7764 51.9861C35.7764 43.2044 42.8953 36.0854 51.677 36.0854Z" fill="url(#paint5_radial)"/>
<path fill-rule="evenodd" clip-rule="evenodd" d="M51.6772 103.664C23.1367 103.664 0 80.5274 0 51.9869C0 23.4464 23.1367 0.309746 51.6772 0.309746C80.2177 0.309746 103.354 23.4464 103.354 51.9869C103.354 80.5274 80.2177 103.664 51.6772 103.664ZM51.6772 67.887C42.8955 67.887 35.7765 60.768 35.7765 51.9863C35.7765 43.2046 42.8955 36.0856 51.6772 36.0856C60.4589 36.0856 67.5778 43.2046 67.5778 51.9863C67.5778 60.768 60.4589 67.887 51.6772 67.887Z" fill="url(#paint6_radial)"/>
<path d="M51.677 34.5854C61.2871 34.5854 69.0777 42.3759 69.0777 51.9861C69.0777 61.5962 61.2871 69.3867 51.677 69.3867C42.0669 69.3867 34.2764 61.5962 34.2764 51.9861C34.2764 42.3759 42.0669 34.5854 51.677 34.5854Z" stroke="#372B81" stroke-opacity="0.53" stroke-width="3"/>
<path opacity="0.5" d="M51.6779 29.1228C64.305 29.1228 74.5413 39.3591 74.5413 51.9862C74.5413 64.6133 64.305 74.8496 51.6779 74.8496C39.0507 74.8496 28.8145 64.6133 28.8145 51.9862C28.8145 39.3591 39.0507 29.1228 51.6779 29.1228Z" stroke="#423782" stroke-width="2"/>
<path opacity="0.2" d="M51.6767 23.1602C67.597 23.1602 80.5029 36.0661 80.5029 51.9863C80.5029 67.9066 67.597 80.8125 51.6767 80.8125C35.7565 80.8125 22.8506 67.9066 22.8506 51.9863C22.8506 36.0661 35.7565 23.1602 51.6767 23.1602Z" stroke="#182175" stroke-width="2"/>
<path opacity="0.05" d="M51.6766 17.1976C70.89 17.1976 86.4655 32.7731 86.4655 51.9865C86.4655 71.1999 70.89 86.7754 51.6766 86.7754C32.4632 86.7754 16.8877 71.1999 16.8877 51.9865C16.8877 32.7731 32.4632 17.1976 51.6766 17.1976Z" stroke="#2B1665" stroke-width="2"/>
</g>
<defs>
<linearGradient id="paint0_linear" x1="52.031" y1="57.0214" x2="52.031" y2="65.7012" gradientUnits="userSpaceOnUse">
<stop stop-color="#27066E" stop-opacity="0.5"/>
<stop offset="1" stop-color="#330497" stop-opacity="0.01"/>
</linearGradient>
<linearGradient id="paint1_linear" x1="46.6426" y1="52.3406" x2="37.9629" y2="52.3406" gradientUnits="userSpaceOnUse">
<stop stop-color="#350B79" stop-opacity="0.5"/>
<stop offset="1" stop-color="#39048F" stop-opacity="0.01"/>
</linearGradient>
<linearGradient id="paint2_linear" x1="52.031" y1="46.9522" x2="52.031" y2="38.2725" gradientUnits="userSpaceOnUse">
<stop stop-color="#26146C" stop-opacity="0.5"/>
<stop offset="1" stop-color="#2B0E9F" stop-opacity="0.01"/>
</linearGradient>
<linearGradient id="paint3_linear" x1="56.7118" y1="52.3406" x2="65.3916" y2="52.3406" gradientUnits="userSpaceOnUse">
<stop stop-color="#201748" stop-opacity="0.5"/>
<stop offset="1" stop-color="#1E1153" stop-opacity="0.01"/>
</linearGradient>
<linearGradient id="paint4_linear" x1="57.0218" y1="46.7978" x2="57.0218" y2="57.582" gradientUnits="userSpaceOnUse">
<stop stop-color="#150162" stop-opacity="0.86"/>
<stop offset="1" stop-color="#8A9DFF"/>
</linearGradient>
<radialGradient id="paint5_radial" cx="0" cy="0" r="1" gradientUnits="userSpaceOnUse" gradientTransform="translate(51.677 51.803) rotate(-90) scale(15.7176)">
<stop stop-color="#312A82" stop-opacity="0.75"/>
<stop offset="1" stop-color="#2D2775" stop-opacity="0.01"/>
</radialGradient>
<radialGradient id="paint6_radial" cx="0" cy="0" r="1" gradientUnits="userSpaceOnUse" gradientTransform="translate(51.6772 51.9869) rotate(-90) scale(47.4497)">
<stop stop-color="#0D1175"/>
<stop offset="0.69768" stop-color="#180F84" stop-opacity="0.19"/>
<stop offset="1" stop-color="#C8B6FD" stop-opacity="0.01"/>
</radialGradient>
</defs>
</svg>
