<svg width="225" height="220" viewBox="0 0 225 220" fill="none" xmlns="http://www.w3.org/2000/svg">
<g opacity="0.45">
<path fill-rule="evenodd" clip-rule="evenodd" d="M91.459 95.0215L91.459 95.9792L118.274 95.9792L118.274 95.0215L91.459 95.0215Z" fill="url(#paint0_linear)"/>
<path fill-rule="evenodd" clip-rule="evenodd" d="M124.979 62.4595L124.021 62.4595L124.021 89.2749L124.979 89.2749L124.979 62.4595Z" fill="url(#paint1_linear)"/>
<path fill-rule="evenodd" clip-rule="evenodd" d="M157.54 95.0215L157.54 95.9792L130.725 95.9792L130.725 95.0215L157.54 95.0215Z" fill="url(#paint2_linear)"/>
<path fill-rule="evenodd" clip-rule="evenodd" d="M124.979 128.542L124.021 128.542L124.021 101.726L124.979 101.726L124.979 128.542Z" fill="url(#paint3_linear)"/>
<path fill-rule="evenodd" clip-rule="evenodd" d="M124.5 72.5571L111.018 95.4988L124.5 108.378L136.999 95.4988L124.5 72.5571Z" fill="url(#paint4_linear)"/>
<path fill-rule="evenodd" clip-rule="evenodd" d="M162.808 95.5001C162.808 116.657 145.657 133.808 124.5 133.808C103.343 133.808 86.1924 116.657 86.1924 95.5001C86.1924 74.3433 103.343 57.1924 124.5 57.1924C145.657 57.1924 162.808 74.3433 162.808 95.5001Z" fill="url(#paint5_radial)"/>
<path fill-rule="evenodd" clip-rule="evenodd" d="M1.48465e-06 95.5002C6.647e-07 26.7406 55.7407 -29 124.5 -29C193.26 -29 249 26.7406 249 95.5002C249 164.26 193.26 220 124.5 220C55.7407 220 2.3046e-06 164.26 1.48465e-06 95.5002ZM86.1927 95.5C86.1927 74.3432 103.344 57.1923 124.5 57.1923C145.657 57.1923 162.808 74.3432 162.808 95.5C162.808 116.657 145.657 133.808 124.5 133.808C103.344 133.808 86.1927 116.657 86.1927 95.5Z" fill="url(#paint6_radial)"/>
<path d="M164.308 95.5001C164.308 117.485 146.485 135.308 124.5 135.308C102.515 135.308 84.6924 117.485 84.6924 95.5001C84.6924 73.5149 102.515 55.6924 124.5 55.6924C146.485 55.6924 164.308 73.5149 164.308 95.5001Z" stroke="#372B81" stroke-opacity="0.53" stroke-width="3"/>
<path opacity="0.5" d="M178.174 95.4998C178.174 125.143 154.143 149.173 124.5 149.173C94.8574 149.173 70.8271 125.143 70.8271 95.4998C70.8271 65.857 94.8574 41.8267 124.5 41.8267C154.143 41.8267 178.174 65.857 178.174 95.4998Z" stroke="#423782" stroke-width="2"/>
<path opacity="0.2" d="M192.538 95.5C192.538 133.077 162.076 163.539 124.5 163.539C86.9229 163.539 56.4609 133.077 56.4609 95.5C56.4609 57.9233 86.9229 27.4614 124.5 27.4614C162.076 27.4614 192.538 57.9233 192.538 95.5Z" stroke="#182175" stroke-width="2"/>
<path opacity="0.05" d="M206.904 95.4997C206.904 141.01 170.01 177.904 124.5 177.904C78.9892 177.904 42.0957 141.01 42.0957 95.4997C42.0957 49.9892 78.9892 13.0957 124.5 13.0957C170.01 13.0957 206.904 49.9892 206.904 95.4997Z" stroke="#2B1665" stroke-width="2"/>
</g>
<defs>
<linearGradient id="paint0_linear" x1="112.37" y1="96.3526" x2="91.459" y2="96.3526" gradientUnits="userSpaceOnUse">
<stop stop-color="#27066E" stop-opacity="0.5"/>
<stop offset="1" stop-color="#330497" stop-opacity="0.01"/>
</linearGradient>
<linearGradient id="paint1_linear" x1="123.647" y1="83.3707" x2="123.647" y2="62.4595" gradientUnits="userSpaceOnUse">
<stop stop-color="#350B79" stop-opacity="0.5"/>
<stop offset="1" stop-color="#39048F" stop-opacity="0.01"/>
</linearGradient>
<linearGradient id="paint2_linear" x1="136.629" y1="96.3526" x2="157.54" y2="96.3526" gradientUnits="userSpaceOnUse">
<stop stop-color="#26146C" stop-opacity="0.5"/>
<stop offset="1" stop-color="#2B0E9F" stop-opacity="0.01"/>
</linearGradient>
<linearGradient id="paint3_linear" x1="123.647" y1="107.63" x2="123.647" y2="128.542" gradientUnits="userSpaceOnUse">
<stop stop-color="#201748" stop-opacity="0.5"/>
<stop offset="1" stop-color="#1E1153" stop-opacity="0.01"/>
</linearGradient>
<linearGradient id="paint4_linear" x1="136.999" y1="108.378" x2="111.018" y2="108.378" gradientUnits="userSpaceOnUse">
<stop stop-color="#150162" stop-opacity="0.86"/>
<stop offset="1" stop-color="#8A9DFF"/>
</linearGradient>
<radialGradient id="paint5_radial" cx="0" cy="0" r="1" gradientUnits="userSpaceOnUse" gradientTransform="translate(124.941 95.5001) scale(37.8666)">
<stop stop-color="#312A82" stop-opacity="0.75"/>
<stop offset="1" stop-color="#2D2775" stop-opacity="0.01"/>
</radialGradient>
<radialGradient id="paint6_radial" cx="0" cy="0" r="1" gradientUnits="userSpaceOnUse" gradientTransform="translate(124.5 95.5002) scale(114.315)">
<stop stop-color="#0D1175"/>
<stop offset="0.69768" stop-color="#180F84" stop-opacity="0.19"/>
<stop offset="1" stop-color="#C8B6FD" stop-opacity="0.01"/>
</radialGradient>
</defs>
</svg>
